<svg width="226" height="109" viewBox="0 0 226 109" fill="none" xmlns="http://www.w3.org/2000/svg">
<path d="M0.2 105.856V88.864L43.688 50.272C46.952 47.392 49.256 44.68 50.6 42.136C51.944 39.592 52.616 37.216 52.616 35.008C52.616 31.84 51.968 29.032 50.672 26.584C49.376 24.088 47.552 22.144 45.2 20.752C42.848 19.312 40.088 18.592 36.92 18.592C33.608 18.592 30.68 19.36 28.136 20.896C25.64 22.384 23.696 24.376 22.304 26.872C20.912 29.32 20.264 31.984 20.36 34.864H0.2C0.2 27.76 1.76 21.616 4.88 16.432C8 11.248 12.344 7.23999 17.912 4.408C23.48 1.576 29.96 0.159998 37.352 0.159998C44.12 0.159998 50.168 1.648 55.496 4.62399C60.872 7.55199 65.096 11.656 68.168 16.936C71.24 22.216 72.776 28.336 72.776 35.296C72.776 40.432 72.056 44.704 70.616 48.112C69.176 51.472 67.04 54.592 64.208 57.472C61.376 60.304 57.896 63.52 53.768 67.12L25.688 91.744L24.104 87.424H72.776V105.856H0.2ZM126.13 108.16C119.266 108.16 113.098 106.552 107.626 103.336C102.202 100.12 97.9063 95.656 94.7383 89.944C91.5703 84.184 89.9863 77.536 89.9863 70V39.904C89.9863 31.744 91.5703 24.712 94.7383 18.808C97.9063 12.856 102.37 8.296 108.13 5.128C113.89 1.912 120.658 0.303996 128.434 0.303996C133.474 0.303996 138.274 1.048 142.834 2.536C147.394 4.024 151.57 6.544 155.362 10.096L141.394 24.064C139.666 22.336 137.674 20.992 135.418 20.032C133.162 19.072 130.834 18.592 128.434 18.592C124.69 18.592 121.426 19.48 118.642 21.256C115.906 22.984 113.77 25.264 112.234 28.096C110.746 30.88 110.002 33.856 110.002 37.024V52.432L106.69 48.832C109.666 45.808 113.098 43.504 116.986 41.92C120.922 40.288 124.978 39.472 129.154 39.472C135.682 39.472 141.418 40.936 146.362 43.864C151.354 46.792 155.242 50.8 158.026 55.888C160.858 60.976 162.274 66.784 162.274 73.312C162.274 79.84 160.618 85.744 157.306 91.024C153.994 96.256 149.602 100.432 144.13 103.552C138.658 106.624 132.658 108.16 126.13 108.16ZM126.13 89.44C129.106 89.44 131.818 88.72 134.266 87.28C136.762 85.84 138.73 83.896 140.17 81.448C141.658 79 142.402 76.288 142.402 73.312C142.402 70.336 141.682 67.624 140.242 65.176C138.802 62.68 136.858 60.712 134.41 59.272C131.962 57.784 129.25 57.04 126.274 57.04C123.298 57.04 120.562 57.784 118.066 59.272C115.618 60.712 113.65 62.68 112.162 65.176C110.722 67.624 110.002 70.336 110.002 73.312C110.002 76.192 110.722 78.856 112.162 81.304C113.602 83.752 115.546 85.72 117.994 87.208C120.442 88.696 123.154 89.44 126.13 89.44ZM199.724 52C194.972 52 190.628 50.848 186.692 48.544C182.756 46.192 179.612 43.072 177.26 39.184C174.956 35.248 173.804 30.88 173.804 26.08C173.804 21.376 175.004 17.056 177.404 13.12C179.804 9.18399 182.972 6.03999 186.908 3.68799C190.844 1.336 195.116 0.159998 199.724 0.159998C204.476 0.159998 208.796 1.336 212.684 3.68799C216.62 5.992 219.764 9.112 222.116 13.048C224.468 16.936 225.644 21.28 225.644 26.08C225.644 30.88 224.468 35.248 222.116 39.184C219.764 43.072 216.62 46.192 212.684 48.544C208.796 50.848 204.476 52 199.724 52ZM199.724 35.44C201.404 35.44 202.94 35.008 204.332 34.144C205.772 33.28 206.924 32.152 207.788 30.76C208.652 29.32 209.084 27.76 209.084 26.08C209.084 24.4 208.652 22.864 207.788 21.472C206.924 20.032 205.772 18.88 204.332 18.016C202.94 17.152 201.404 16.72 199.724 16.72C198.044 16.72 196.484 17.152 195.044 18.016C193.652 18.88 192.524 20.032 191.66 21.472C190.796 22.864 190.364 24.4 190.364 26.08C190.364 27.76 190.796 29.32 191.66 30.76C192.524 32.152 193.652 33.28 195.044 34.144C196.484 35.008 198.044 35.44 199.724 35.44Z" fill="url(#paint0_linear_6_86)"/>
<defs>
<linearGradient id="paint0_linear_6_86" x1="114" y1="-48" x2="114" y2="149" gradientUnits="userSpaceOnUse">
<stop stop-color="#111827"/>
<stop offset="1" stop-color="#6B7280"/>
</linearGradient>
</defs>
</svg>
