<svg width="170" height="40" viewBox="0 0 170 40" fill="none" xmlns="http://www.w3.org/2000/svg">
<path d="M0.36 39V4.44H6.888V20.376L20.04 4.44H28.008L13.56 21.48L28.92 39H20.664L6.888 23.256V39H0.36ZM32.2819 39V13.08H38.0419V19.416L37.4179 18.6C37.7539 17.704 38.2019 16.888 38.7619 16.152C39.3219 15.416 40.0099 14.808 40.8259 14.328C41.4499 13.944 42.1299 13.648 42.8659 13.44C43.6019 13.216 44.3619 13.08 45.1459 13.032C45.9299 12.968 46.7139 12.984 47.4979 13.08V19.176C46.7779 18.952 45.9379 18.88 44.9779 18.96C44.0339 19.024 43.1779 19.24 42.4099 19.608C41.6419 19.96 40.9939 20.432 40.4659 21.024C39.9379 21.6 39.5379 22.288 39.2659 23.088C38.9939 23.872 38.8579 24.76 38.8579 25.752V39H32.2819ZM58.7475 39.72C56.8915 39.72 55.3155 39.368 54.0195 38.664C52.7395 37.944 51.7635 36.992 51.0915 35.808C50.4355 34.608 50.1075 33.288 50.1075 31.848C50.1075 30.648 50.2915 29.552 50.6595 28.56C51.0275 27.568 51.6195 26.696 52.4355 25.944C53.2675 25.176 54.3795 24.536 55.7715 24.024C56.7315 23.672 57.8755 23.36 59.2035 23.088C60.5315 22.816 62.0355 22.56 63.7155 22.32C65.3955 22.064 67.2435 21.784 69.2595 21.48L66.9075 22.776C66.9075 21.24 66.5395 20.112 65.8035 19.392C65.0675 18.672 63.8355 18.312 62.1075 18.312C61.1475 18.312 60.1475 18.544 59.1075 19.008C58.0675 19.472 57.3395 20.296 56.9235 21.48L51.0195 19.608C51.6755 17.464 52.9075 15.72 54.7155 14.376C56.5235 13.032 58.9875 12.36 62.1075 12.36C64.3955 12.36 66.4275 12.712 68.2035 13.416C69.9795 14.12 71.3235 15.336 72.2355 17.064C72.7475 18.024 73.0515 18.984 73.1475 19.944C73.2435 20.904 73.2915 21.976 73.2915 23.16V39H67.5795V33.672L68.3955 34.776C67.1315 36.52 65.7635 37.784 64.2915 38.568C62.8355 39.336 60.9875 39.72 58.7475 39.72ZM60.1395 34.584C61.3395 34.584 62.3475 34.376 63.1635 33.96C63.9955 33.528 64.6515 33.04 65.1315 32.496C65.6275 31.952 65.9635 31.496 66.1395 31.128C66.4755 30.424 66.6675 29.608 66.7155 28.68C66.7795 27.736 66.8115 26.952 66.8115 26.328L68.7315 26.808C66.7955 27.128 65.2275 27.4 64.0275 27.624C62.8275 27.832 61.8595 28.024 61.1235 28.2C60.3875 28.376 59.7395 28.568 59.1795 28.776C58.5395 29.032 58.0195 29.312 57.6195 29.616C57.2355 29.904 56.9475 30.224 56.7555 30.576C56.5795 30.928 56.4915 31.32 56.4915 31.752C56.4915 32.344 56.6355 32.856 56.9235 33.288C57.2275 33.704 57.6515 34.024 58.1955 34.248C58.7395 34.472 59.3875 34.584 60.1395 34.584ZM79.4839 39L79.5319 4.44H86.1559V25.56L94.9399 13.08H103.004L93.6439 26.04L103.628 39H95.1319L86.1559 26.52V39H79.4839ZM119.732 9.48H114.884L118.868 0.119997H123.716L119.732 9.48ZM117.212 39.72C114.604 39.72 112.316 39.136 110.348 37.968C108.38 36.8 106.844 35.192 105.74 33.144C104.652 31.08 104.108 28.712 104.108 26.04C104.108 23.336 104.668 20.96 105.788 18.912C106.908 16.848 108.452 15.24 110.42 14.088C112.388 12.936 114.652 12.36 117.212 12.36C119.82 12.36 122.108 12.944 124.076 14.112C126.06 15.28 127.604 16.896 128.708 18.96C129.812 21.008 130.364 23.368 130.364 26.04C130.364 28.728 129.804 31.104 128.684 33.168C127.58 35.216 126.036 36.824 124.052 37.992C122.084 39.144 119.804 39.72 117.212 39.72ZM117.212 33.624C119.308 33.624 120.868 32.92 121.892 31.512C122.932 30.088 123.452 28.264 123.452 26.04C123.452 23.736 122.924 21.896 121.868 20.52C120.828 19.144 119.276 18.456 117.212 18.456C115.788 18.456 114.62 18.776 113.708 19.416C112.796 20.056 112.116 20.944 111.668 22.08C111.236 23.216 111.02 24.536 111.02 26.04C111.02 28.36 111.54 30.208 112.58 31.584C113.636 32.944 115.18 33.624 117.212 33.624ZM140.224 39L132.304 13.032L138.688 13.08L143.392 28.536L148.168 13.08H153.592L158.368 28.536L163.072 13.08H169.456L161.536 39H156.544L150.88 22.104L145.216 39H140.224Z" fill="#111827"/>
</svg>
