<svg width="76" height="24" viewBox="0 0 76 24" fill="none" xmlns="http://www.w3.org/2000/svg">
<path d="M8.208 18.36C6.928 18.36 5.772 18.136 4.74 17.688C3.716 17.232 2.872 16.584 2.208 15.744C1.552 14.896 1.136 13.888 0.96 12.72L4.368 12.216C4.608 13.208 5.104 13.972 5.856 14.508C6.608 15.044 7.464 15.312 8.424 15.312C8.96 15.312 9.48 15.228 9.984 15.06C10.488 14.892 10.9 14.644 11.22 14.316C11.548 13.988 11.712 13.584 11.712 13.104C11.712 12.928 11.684 12.76 11.628 12.6C11.58 12.432 11.496 12.276 11.376 12.132C11.256 11.988 11.084 11.852 10.86 11.724C10.644 11.596 10.368 11.48 10.032 11.376L5.544 10.056C5.208 9.96 4.816 9.824 4.368 9.648C3.928 9.472 3.5 9.22 3.084 8.892C2.668 8.564 2.32 8.132 2.04 7.596C1.768 7.052 1.632 6.368 1.632 5.544C1.632 4.384 1.924 3.42 2.508 2.652C3.092 1.884 3.872 1.312 4.848 0.935999C5.824 0.559999 6.904 0.375999 8.088 0.383999C9.28 0.399999 10.344 0.603999 11.28 0.995999C12.216 1.388 13 1.96 13.632 2.712C14.264 3.456 14.72 4.368 15 5.448L11.472 6.048C11.344 5.488 11.108 5.016 10.764 4.632C10.42 4.248 10.008 3.956 9.528 3.756C9.056 3.556 8.56 3.448 8.04 3.432C7.528 3.416 7.044 3.488 6.588 3.648C6.14 3.8 5.772 4.024 5.484 4.32C5.204 4.616 5.064 4.968 5.064 5.376C5.064 5.752 5.18 6.06 5.412 6.3C5.644 6.532 5.936 6.72 6.288 6.864C6.64 7.008 7 7.128 7.368 7.224L10.368 8.04C10.816 8.16 11.312 8.32 11.856 8.52C12.4 8.712 12.92 8.984 13.416 9.336C13.92 9.68 14.332 10.136 14.652 10.704C14.98 11.272 15.144 11.992 15.144 12.864C15.144 13.792 14.948 14.604 14.556 15.3C14.172 15.988 13.652 16.56 12.996 17.016C12.34 17.464 11.596 17.8 10.764 18.024C9.94 18.248 9.088 18.36 8.208 18.36ZM22.6056 18.384C21.5896 18.384 20.7616 18.212 20.1216 17.868C19.4816 17.524 18.9816 17.088 18.6216 16.56C18.2696 16.032 18.0176 15.484 17.8656 14.916C17.7136 14.34 17.6216 13.816 17.5896 13.344C17.5576 12.872 17.5416 12.528 17.5416 12.312V5.04H20.8536V11.16C20.8536 11.456 20.8696 11.836 20.9016 12.3C20.9336 12.756 21.0336 13.216 21.2016 13.68C21.3696 14.144 21.6416 14.532 22.0176 14.844C22.4016 15.156 22.9416 15.312 23.6376 15.312C23.9176 15.312 24.2176 15.268 24.5376 15.18C24.8576 15.092 25.1576 14.924 25.4376 14.676C25.7176 14.42 25.9456 14.048 26.1216 13.56C26.3056 13.064 26.3976 12.416 26.3976 11.616L28.2696 12.504C28.2696 13.528 28.0616 14.488 27.6456 15.384C27.2296 16.28 26.6016 17.004 25.7616 17.556C24.9296 18.108 23.8776 18.384 22.6056 18.384ZM26.8056 18V13.704H26.3976V5.04H29.6856V18H26.8056ZM41.8714 18V11.88C41.8714 11.584 41.8554 11.208 41.8234 10.752C41.7914 10.288 41.6914 9.824 41.5234 9.36C41.3554 8.896 41.0794 8.508 40.6954 8.196C40.3194 7.884 39.7834 7.728 39.0874 7.728C38.8074 7.728 38.5074 7.772 38.1874 7.86C37.8674 7.948 37.5674 8.12 37.2874 8.376C37.0074 8.624 36.7754 8.992 36.5914 9.48C36.4154 9.968 36.3274 10.616 36.3274 11.424L34.4554 10.536C34.4554 9.512 34.6634 8.552 35.0794 7.656C35.4954 6.76 36.1194 6.036 36.9514 5.484C37.7914 4.932 38.8474 4.656 40.1194 4.656C41.1354 4.656 41.9634 4.828 42.6034 5.172C43.2434 5.516 43.7394 5.952 44.0914 6.48C44.4514 7.008 44.7074 7.56 44.8594 8.136C45.0114 8.704 45.1034 9.224 45.1354 9.696C45.1674 10.168 45.1834 10.512 45.1834 10.728V18H41.8714ZM33.0154 18V5.04H35.9194V9.336H36.3274V18H33.0154ZM57.1292 18V11.88C57.1292 11.584 57.1132 11.208 57.0812 10.752C57.0492 10.288 56.9492 9.824 56.7812 9.36C56.6132 8.896 56.3372 8.508 55.9532 8.196C55.5772 7.884 55.0412 7.728 54.3452 7.728C54.0652 7.728 53.7652 7.772 53.4452 7.86C53.1252 7.948 52.8252 8.12 52.5452 8.376C52.2652 8.624 52.0332 8.992 51.8492 9.48C51.6732 9.968 51.5852 10.616 51.5852 11.424L49.7132 10.536C49.7132 9.512 49.9212 8.552 50.3372 7.656C50.7532 6.76 51.3772 6.036 52.2092 5.484C53.0492 4.932 54.1052 4.656 55.3772 4.656C56.3932 4.656 57.2212 4.828 57.8612 5.172C58.5012 5.516 58.9972 5.952 59.3492 6.48C59.7092 7.008 59.9652 7.56 60.1172 8.136C60.2692 8.704 60.3612 9.224 60.3932 9.696C60.4252 10.168 60.4412 10.512 60.4412 10.728V18H57.1292ZM48.2732 18V5.04H51.1772V9.336H51.5852V18H48.2732ZM64.7423 23.76L67.2383 16.896L67.2863 18.912L61.6463 5.04H65.0303L68.8223 14.856H68.0543L71.8223 5.04H75.0863L67.7663 23.76H64.7423Z" fill="#FF8E27"/>
</svg>
