<svg width="211" height="230" viewBox="0 0 211 230" fill="none" xmlns="http://www.w3.org/2000/svg">
<path d="M8.64 116.128H51.84V101.008H8.64V116.128ZM101.365 156.16C107.893 156.16 113.941 154.624 119.509 151.552C125.077 148.432 129.565 144.256 132.973 139.024C136.381 133.744 138.085 127.84 138.085 121.312C138.085 114.784 136.669 109 133.837 103.96C131.053 98.872 127.165 94.888 122.173 92.008C117.229 89.08 111.493 87.616 104.965 87.616C102.709 87.616 100.309 87.904 97.7648 88.48C95.2208 89.056 92.7968 89.968 90.4928 91.216L91.9328 68.608H131.173V50.32H74.5808L71.4128 105.472L87.9728 110.512C89.1248 109.408 90.8528 108.256 93.1568 107.056C95.4608 105.808 98.4368 105.184 102.085 105.184C105.061 105.184 107.773 105.904 110.221 107.344C112.717 108.784 114.685 110.728 116.125 113.176C117.613 115.624 118.357 118.336 118.357 121.312C118.357 124.288 117.613 127 116.125 129.448C114.685 131.896 112.717 133.84 110.221 135.28C107.773 136.72 105.061 137.44 102.085 137.44C98.7248 137.44 95.5328 136.36 92.5088 134.2C89.4848 132.04 87.4928 129.136 86.5328 125.488L67.6688 130.528C69.1088 135.616 71.4848 140.08 74.7968 143.92C78.1088 147.76 82.0448 150.76 86.6048 152.92C91.2128 155.08 96.1328 156.16 101.365 156.16ZM175.506 100C180.258 100 184.578 98.848 188.466 96.544C192.402 94.192 195.546 91.072 197.898 87.184C200.25 83.248 201.426 78.88 201.426 74.08C201.426 69.28 200.25 64.936 197.898 61.048C195.546 57.112 192.402 53.992 188.466 51.688C184.578 49.336 180.258 48.16 175.506 48.16C170.898 48.16 166.626 49.336 162.69 51.688C158.754 54.04 155.586 57.184 153.186 61.12C150.786 65.056 149.586 69.376 149.586 74.08C149.586 78.88 150.738 83.248 153.042 87.184C155.394 91.072 158.538 94.192 162.474 96.544C166.41 98.848 170.754 100 175.506 100ZM175.506 83.44C173.01 83.44 170.826 82.504 168.954 80.632C167.082 78.76 166.146 76.576 166.146 74.08C166.146 71.536 167.082 69.352 168.954 67.528C170.826 65.656 173.01 64.72 175.506 64.72C178.05 64.72 180.234 65.656 182.058 67.528C183.93 69.352 184.866 71.536 184.866 74.08C184.866 76.576 183.93 78.76 182.058 80.632C180.234 82.504 178.05 83.44 175.506 83.44Z" fill="url(#paint0_linear_38_116)"/>
<path d="M5.688 223H8.952V208.768H14.4V205.72H0.24V208.768H5.688V223ZM16.3044 223H19.6164V216.424C19.6164 215.616 19.7044 214.968 19.8804 214.48C20.0644 213.992 20.2964 213.624 20.5764 213.376C20.8564 213.12 21.1564 212.948 21.4764 212.86C21.7964 212.772 22.0964 212.728 22.3764 212.728C23.0724 212.728 23.6084 212.884 23.9844 213.196C24.3684 213.508 24.6444 213.896 24.8124 214.36C24.9804 214.824 25.0804 215.288 25.1124 215.752C25.1444 216.208 25.1604 216.584 25.1604 216.88V223H28.4724V215.728C28.4724 215.512 28.4564 215.168 28.4244 214.696C28.3924 214.224 28.3004 213.704 28.1484 213.136C27.9964 212.56 27.7404 212.008 27.3804 211.48C27.0284 210.952 26.5324 210.516 25.8924 210.172C25.2524 209.828 24.4244 209.656 23.4084 209.656C22.4724 209.656 21.6564 209.812 20.9604 210.124C20.2644 210.436 19.6804 210.852 19.2084 211.372V205.72H16.3044V223ZM36.4103 223.384C37.3463 223.384 38.1623 223.228 38.8583 222.916C39.5543 222.604 40.1383 222.188 40.6103 221.668V223H43.4903V210.04H40.2023V216.616C40.2023 217.416 40.1103 218.064 39.9263 218.56C39.7503 219.048 39.5223 219.42 39.2423 219.676C38.9623 219.924 38.6623 220.092 38.3423 220.18C38.0223 220.268 37.7223 220.312 37.4423 220.312C36.7463 220.312 36.2063 220.156 35.8223 219.844C35.4463 219.532 35.1743 219.144 35.0063 218.68C34.8383 218.216 34.7383 217.756 34.7063 217.3C34.6743 216.836 34.6583 216.456 34.6583 216.16V210.04H31.3463V217.312C31.3463 217.528 31.3623 217.872 31.3943 218.344C31.4263 218.816 31.5183 219.34 31.6702 219.916C31.8223 220.484 32.0743 221.032 32.4263 221.56C32.7863 222.088 33.2863 222.524 33.9263 222.868C34.5663 223.212 35.3943 223.384 36.4103 223.384ZM46.8201 223H50.1321V216.424C50.1321 215.616 50.2201 214.968 50.3961 214.48C50.5801 213.992 50.8121 213.624 51.0921 213.376C51.3721 213.12 51.6721 212.948 51.9921 212.86C52.3121 212.772 52.6121 212.728 52.8921 212.728C53.5881 212.728 54.1241 212.884 54.5001 213.196C54.8841 213.508 55.1601 213.896 55.3281 214.36C55.4961 214.824 55.5961 215.288 55.6281 215.752C55.6601 216.208 55.6761 216.584 55.6761 216.88V223H58.9881V215.728C58.9881 215.512 58.9721 215.168 58.9401 214.696C58.9081 214.224 58.8161 213.704 58.6641 213.136C58.5121 212.56 58.2561 212.008 57.8961 211.48C57.5441 210.952 57.0481 210.516 56.4081 210.172C55.7681 209.828 54.9401 209.656 53.9241 209.656C52.9881 209.656 52.1721 209.812 51.4761 210.124C50.7801 210.436 50.1961 210.852 49.7241 211.372V210.04H46.8201V223ZM67.1235 223.36C67.8355 223.36 68.4835 223.264 69.0675 223.072C69.6515 222.88 70.1715 222.608 70.6275 222.256V223H73.5075V205.72H70.2195V210.472C69.8195 210.216 69.3715 210.02 68.8755 209.884C68.3875 209.748 67.8595 209.68 67.2915 209.68C66.0515 209.68 64.9715 209.976 64.0515 210.568C63.1315 211.16 62.4155 211.972 61.9035 213.004C61.3995 214.028 61.1475 215.2 61.1475 216.52C61.1475 217.816 61.3955 218.98 61.8915 220.012C62.3955 221.044 63.0955 221.86 63.9915 222.46C64.8875 223.06 65.9315 223.36 67.1235 223.36ZM67.6515 220.456C66.9475 220.456 66.3715 220.28 65.9235 219.928C65.4755 219.576 65.1435 219.104 64.9275 218.512C64.7115 217.912 64.6035 217.248 64.6035 216.52C64.6035 215.8 64.7155 215.144 64.9395 214.552C65.1635 213.952 65.5075 213.476 65.9715 213.124C66.4435 212.764 67.0435 212.584 67.7715 212.584C68.7955 212.584 69.5275 212.948 69.9675 213.676C70.4075 214.396 70.6275 215.344 70.6275 216.52C70.6275 217.696 70.4035 218.648 69.9555 219.376C69.5155 220.096 68.7475 220.456 67.6515 220.456ZM82.8915 223.36C84.1395 223.36 85.2875 223.032 86.3355 222.376C87.3915 221.72 88.1635 220.8 88.6515 219.616L85.3875 218.68C84.8915 219.768 83.9955 220.312 82.6995 220.312C81.8115 220.312 81.1115 220.064 80.5995 219.568C80.0955 219.072 79.7835 218.36 79.6635 217.432H88.7595C88.8955 215.864 88.7355 214.5 88.2795 213.34C87.8235 212.18 87.1195 211.28 86.1675 210.64C85.2155 210 84.0595 209.68 82.6995 209.68C81.4195 209.68 80.2875 209.972 79.3035 210.556C78.3195 211.132 77.5475 211.944 76.9875 212.992C76.4275 214.04 76.1475 215.272 76.1475 216.688C76.1475 217.984 76.4315 219.136 76.9995 220.144C77.5755 221.144 78.3675 221.932 79.3755 222.508C80.3915 223.076 81.5635 223.36 82.8915 223.36ZM82.8435 212.512C83.6275 212.512 84.2275 212.708 84.6435 213.1C85.0675 213.492 85.3395 214.128 85.4595 215.008H79.7475C80.0915 213.344 81.1235 212.512 82.8435 212.512ZM91.4691 223H94.7571V216.376C94.7571 214.872 95.3491 213.848 96.5331 213.304C96.9171 213.12 97.3451 213.012 97.8171 212.98C98.2971 212.94 98.7171 212.976 99.0771 213.088V210.04C98.4931 209.968 97.9091 209.984 97.3251 210.088C96.7411 210.184 96.2131 210.376 95.7411 210.664C95.4371 210.84 95.1691 211.052 94.9371 211.3C94.7131 211.548 94.5171 211.824 94.3491 212.128V210.04H91.4691V223ZM105.955 223.36C107.651 223.36 108.979 222.98 109.939 222.22C110.899 221.46 111.379 220.416 111.379 219.088C111.379 218.08 111.067 217.284 110.443 216.7C109.827 216.116 108.779 215.632 107.299 215.248C106.291 214.992 105.539 214.784 105.043 214.624C104.555 214.464 104.231 214.308 104.071 214.156C103.919 214.004 103.843 213.816 103.843 213.592C103.843 213.216 104.023 212.928 104.383 212.728C104.751 212.528 105.235 212.448 105.835 212.488C107.107 212.584 107.803 213.128 107.923 214.12L111.259 213.52C111.091 212.344 110.515 211.412 109.531 210.724C108.547 210.028 107.291 209.68 105.763 209.68C104.195 209.68 102.943 210.048 102.007 210.784C101.071 211.52 100.603 212.512 100.603 213.76C100.603 214.752 100.927 215.536 101.575 216.112C102.223 216.68 103.339 217.168 104.923 217.576C105.859 217.824 106.547 218.024 106.987 218.176C107.435 218.328 107.723 218.484 107.851 218.644C107.979 218.796 108.043 219 108.043 219.256C108.043 219.664 107.883 219.984 107.563 220.216C107.243 220.44 106.787 220.552 106.195 220.552C105.475 220.552 104.879 220.38 104.407 220.036C103.943 219.692 103.643 219.216 103.507 218.608L100.171 219.112C100.387 220.464 100.995 221.512 101.995 222.256C103.003 222.992 104.323 223.36 105.955 223.36ZM121.792 223V220.288C121.024 220.392 120.324 220.424 119.692 220.384C119.06 220.344 118.6 220.096 118.312 219.64C118.16 219.4 118.076 219.08 118.06 218.68C118.052 218.272 118.048 217.816 118.048 217.312V212.56H121.792V210.04H118.048V206.44H114.784V210.04H112.576V212.56H114.784V217.504C114.784 218.28 114.792 218.976 114.808 219.592C114.824 220.2 114.992 220.8 115.312 221.392C115.664 222.024 116.176 222.484 116.848 222.772C117.528 223.052 118.296 223.2 119.152 223.216C120.016 223.24 120.896 223.168 121.792 223ZM129.785 223.36C131.081 223.36 132.221 223.072 133.205 222.496C134.197 221.912 134.969 221.108 135.521 220.084C136.081 219.052 136.361 217.864 136.361 216.52C136.361 215.184 136.085 214.004 135.533 212.98C134.981 211.948 134.209 211.14 133.217 210.556C132.233 209.972 131.089 209.68 129.785 209.68C128.505 209.68 127.373 209.968 126.389 210.544C125.405 211.12 124.633 211.924 124.073 212.956C123.513 213.98 123.233 215.168 123.233 216.52C123.233 217.856 123.505 219.04 124.049 220.072C124.601 221.096 125.369 221.9 126.353 222.484C127.337 223.068 128.481 223.36 129.785 223.36ZM129.785 220.312C128.769 220.312 127.997 219.972 127.469 219.292C126.949 218.604 126.689 217.68 126.689 216.52C126.689 215.392 126.937 214.48 127.433 213.784C127.937 213.08 128.721 212.728 129.785 212.728C130.817 212.728 131.593 213.072 132.113 213.76C132.641 214.448 132.905 215.368 132.905 216.52C132.905 217.632 132.645 218.544 132.125 219.256C131.613 219.96 130.833 220.312 129.785 220.312ZM139 223H142.288V216.376C142.288 214.872 142.88 213.848 144.064 213.304C144.448 213.12 144.876 213.012 145.348 212.98C145.828 212.94 146.248 212.976 146.608 213.088V210.04C146.024 209.968 145.44 209.984 144.856 210.088C144.272 210.184 143.744 210.376 143.272 210.664C142.968 210.84 142.7 211.052 142.468 211.3C142.244 211.548 142.048 211.824 141.88 212.128V210.04H139V223ZM148.867 223H152.155V215.152C152.155 214.408 152.359 213.804 152.767 213.34C153.183 212.868 153.731 212.632 154.411 212.632C155.123 212.632 155.679 212.872 156.079 213.352C156.487 213.824 156.691 214.488 156.691 215.344V223H159.955V215.152C159.955 214.408 160.159 213.804 160.567 213.34C160.983 212.868 161.531 212.632 162.211 212.632C162.923 212.632 163.479 212.872 163.879 213.352C164.287 213.824 164.491 214.488 164.491 215.344V223H167.755V214.48C167.755 213.064 167.375 211.92 166.615 211.048C165.863 210.168 164.747 209.728 163.267 209.728C162.435 209.728 161.671 209.908 160.975 210.268C160.279 210.628 159.723 211.12 159.307 211.744C158.971 211.136 158.491 210.648 157.867 210.28C157.243 209.912 156.467 209.728 155.539 209.728C154.755 209.728 154.035 209.884 153.379 210.196C152.723 210.5 152.179 210.92 151.747 211.456V210.04H148.867V223Z" fill="#BF8EDD"/>
<defs>
<linearGradient id="paint0_linear_38_116" x1="105.5" y1="0" x2="105.5" y2="197" gradientUnits="userSpaceOnUse">
<stop stop-color="#111827"/>
<stop offset="1" stop-color="#6B7280"/>
</linearGradient>
</defs>
</svg>
